<?xml version="1.0" encoding="UTF-8" standalone="no"?>
<svg
   version="1.1"
   id="svg1"
   width="2048"
   height="2048"
   viewBox="0 0 2048 2048"
   xmlns="http://www.w3.org/2000/svg"
   xmlns:svg="http://www.w3.org/2000/svg">
  <defs id="defs1">
    <linearGradient
       id="boostyGradient"
       gradientUnits="userSpaceOnUse"
       x1="1379" y1="266"
       x2="538" y2="2653">
      <stop offset="0"      style="stop-color:#EE7829"/>
      <stop offset="0.2792" style="stop-color:#EF692A"/>
      <stop offset="0.6279" style="stop-color:#F05E2C"/>
      <stop offset="1"      style="stop-color:#F05A2C"/>
    </linearGradient>
    <clipPath id="plateClip">
      <path d="m 449.33103,227.39685 c -93.47739,12.30945 -177.5177,75.47424 -199.34875,170.57556 -9.05219,39.43347 -6.65125,79.80127 -6.65125,120 v 177 576.99989 148 c 0,65.3083 0.80237,127.0457 39.72067,183 11.02829,15.8558 23.76486,30.0051 38.27933,42.7137 79.87112,69.9338 186.64221,56.2863 285,56.2863 h 603.99997 193 c 37.6091,0 76.8356,3.2046 114,-3.25 94.1128,-16.3453 171.1193,-87.6373 188.3859,-182.75 6.5241,-35.9384 3.6141,-73.6106 3.6141,-110 v -182 -574.99989 -142 c 0,-69.06458 -1.4198,-133.61938 -45.6512,-191 -33.4875,-43.4425 -82.4043,-74.6156 -136.3488,-85.19604 -26.0959,-5.11841 -52.5424,-3.80396 -79,-3.80396 h -113 -593.99997 -194 c -31.89502,0 -66.39502,-3.73743 -98,0.42444 z" />
    </clipPath>
  </defs>
  <g id="g1">
    <!-- белая подложка, обрезанная по форме плашки -->
    <rect x="0" y="0" width="2048" height="2048"
          fill="#ffffff" clip-path="url(#plateClip)" />
    <!-- градиентная плашка с дыркой-молнией поверх белого -->
    <path
       style="fill:url(#boostyGradient);stroke:none"
       d="m 449.33103,227.39685 c -93.47739,12.30945 -177.5177,75.47424 -199.34875,170.57556 -9.05219,39.43347 -6.65125,79.80127 -6.65125,120 v 177 576.99989 148 c 0,65.3083 0.80237,127.0457 39.72067,183 11.02829,15.8558 23.76486,30.0051 38.27933,42.7137 79.87112,69.9338 186.64221,56.2863 285,56.2863 h 603.99997 193 c 37.6091,0 76.8356,3.2046 114,-3.25 94.1128,-16.3453 171.1193,-87.6373 188.3859,-182.75 6.5241,-35.9384 3.6141,-73.6106 3.6141,-110 v -182 -574.99989 -142 c 0,-69.06458 -1.4198,-133.61938 -45.6512,-191 -33.4875,-43.4425 -82.4043,-74.6156 -136.3488,-85.19604 -26.0959,-5.11841 -52.5424,-3.80396 -79,-3.80396 h -113 -593.99997 -194 c -31.89502,0 -66.39502,-3.73743 -98,0.42444 m 479,277.57556 c -4.19348,31.14209 -17.15967,62.73059 -25.57562,93 -20.00556,71.95325 -40.05237,143.91418 -59.57563,216 -9.03759,33.36951 -22.81817,67.80933 -27.84875,102 31.64606,3.99976 67.11499,0.92517 99.15509,0.41052 8.62061,-0.13843 17.21741,-0.41052 25.84491,-0.41052 2.8111,0 8.04181,-0.94824 10.35724,1.02771 3.18716,2.71997 -1.16272,13.48547 -1.93286,16.97229 -3.76038,17.0249 -7.94959,33.9554 -11.63428,51 -9.81061,45.38129 -19.96698,90.82299 -30.67438,135.99989 -5.82824,24.5906 -15.02759,51.7207 -16.11572,77 h 1 c 7.42847,-19.6268 22.79169,-39.1743 33.94983,-57 19.49951,-31.1512 38.26907,-62.7593 57.62577,-93.9999 C 1035.0622,962.79591 1082.9873,875.07763 1138.331,792.97241 H 997.33103 c 3.97597,-26.9209 17.05487,-55.16479 25.66657,-81 13.9656,-41.89685 27.0359,-84.10767 41,-126 8.8993,-26.69788 20.0413,-53.55396 26.3334,-81 h 88 c 38.6637,0 74.6827,-0.6571 99.8418,34 17.4697,24.06494 16.1582,50.74219 16.1582,79 v 112 479.99989 140 c 0,18.969 4.0719,43.3505 -9.213,59 -33.6935,39.6906 -74.3377,-10.3145 -98.787,-33.0895 -45.8551,-42.7148 -90.7083,-86.6412 -136,-129.9498 -26.2277,-25.0792 -50.1609,-51.5906 -89.99997,-42.4607 -27.67371,6.3419 -46.36359,31.6841 -66,50.4607 -40.21271,38.4519 -81.17474,76.2042 -121,115.0539 -21.70685,21.1751 -45.81311,55.4526 -79,53.9461 -41.8233,-1.8987 -36,-52.2362 -36,-80.9607 V 1074.9724 676.97241 c 0,-46.49805 -12.92981,-116.45947 27.00385,-150.56104 27.76306,-23.70837 58.68829,-21.43896 92.99615,-21.43896 z"
       id="path3" />
  </g>
</svg>